/* XPM */
static char *_bf1b5462bde497ab71af5307384f575fTnlTb3x6iSABMuz[] = {
/* columns rows colors chars-per-pixel */
"32 32 201 2 ",
"   c None",
".  c #090403",
"X  c #090A00",
"o  c #050503",
"O  c #0D1505",
"+  c #0E1A05",
"@  c #0C150B",
"#  c #071106",
"$  c #121700",
"%  c #111C04",
"&  c #131E0A",
"*  c #101609",
"=  c #2A1800",
"-  c #122105",
";  c #13220A",
":  c #192909",
">  c #1A2407",
",  c #1A2512",
"<  c #212916",
"1  c #2C2F1B",
"2  c #282A17",
"3  c #3A2E15",
"4  c #263116",
"5  c #333519",
"6  c #492E0C",
"7  c #453D21",
"8  c #274214",
"9  c #3C4419",
"0  c #2E4F0D",
"q  c #3C6415",
"w  c #344024",
"e  c #2E4527",
"r  c #415B00",
"t  c #614C17",
"y  c #496200",
"u  c #4B6A03",
"i  c #556300",
"p  c #537300",
"a  c #5A7900",
"s  c #587700",
"d  c #607F00",
"f  c #564422",
"g  c #5D5623",
"h  c #7E5E2E",
"j  c #635630",
"k  c #4A7E21",
"l  c #5B4E40",
"z  c #5B5A5E",
"x  c #6A5741",
"c  c #7F6241",
"v  c #7C7F7B",
"b  c #8C6444",
"n  c #8B714C",
"m  c #9A7249",
"M  c #9E7245",
"N  c #957250",
"B  c #A07D4B",
"V  c #A57748",
"C  c #A47E53",
"Z  c #AA7E51",
"A  c #B47958",
"S  c #8C7F65",
"D  c #957B64",
"F  c #4C8501",
"G  c #5E8300",
"H  c #5A8700",
"J  c #4B9200",
"K  c #559303",
"L  c #4F8211",
"P  c #628A00",
"I  c #718600",
"U  c #639D00",
"Y  c #5CA41B",
"T  c #63AC04",
"R  c #69A900",
"E  c #65B400",
"W  c #6DB500",
"Q  c #6EBB01",
"!  c #70B500",
"~  c #72BD01",
"^  c #68AE1F",
"/  c #508723",
"(  c #608623",
")  c #7AB626",
"_  c #6DC500",
"`  c #74C302",
"'  c #7AC501",
"]  c #75CA01",
"[  c #79CC01",
"{  c #7AC00E",
"}  c #77D102",
"|  c #7BD301",
" . c #7DDA01",
".. c #75DC00",
"X. c #76D817",
"o. c #7FE500",
"O. c #76EA00",
"+. c #76FE07",
"@. c #75FF12",
"#. c #7AFF10",
"$. c #73C62F",
"%. c #7DFF27",
"&. c #81AF1B",
"*. c #80BD17",
"=. c #808339",
"-. c #92BF39",
";. c #88B829",
":. c #82CB00",
">. c #82DC01",
",. c #82D506",
"<. c #8AD215",
"1. c #84E301",
"2. c #8BE500",
"3. c #84EA00",
"4. c #8AEC01",
"5. c #8BF400",
"6. c #81FF01",
"7. c #8CFB01",
"8. c #8DFF0B",
"9. c #91F601",
"0. c #9CF600",
"q. c #92FA02",
"w. c #93FF0D",
"e. c #84FF15",
"r. c #8CFF15",
"t. c #84FE1D",
"y. c #8BFF1C",
"u. c #94FF12",
"i. c #93FF1B",
"p. c #9CFF1A",
"a. c #A0FE00",
"s. c #82D83D",
"d. c #8CEC2F",
"f. c #85FF24",
"g. c #8DFF23",
"h. c #85FF2C",
"j. c #8AFF2B",
"k. c #85F529",
"l. c #93FF23",
"z. c #95FF2C",
"x. c #83FF34",
"c. c #8AFE35",
"v. c #8DFF38",
"b. c #93FF34",
"n. c #92FF3F",
"m. c #98FF37",
"M. c #A3FF3B",
"N. c #838054",
"B. c #9E8159",
"V. c #A98457",
"C. c #BC8E5D",
"Z. c #B58758",
"A. c #A79757",
"S. c #B2925D",
"D. c #9FB252",
"F. c #94B743",
"G. c #ACA45C",
"H. c #ABA757",
"J. c #ABB25B",
"K. c #999164",
"L. c #AA8B66",
"P. c #B78E63",
"I. c #AF9A69",
"U. c #B39162",
"Y. c #BB9767",
"T. c #B79974",
"R. c #B8A76B",
"E. c #BFA272",
"W. c #BFB87A",
"Q. c #C3945F",
"!. c #C39C6A",
"~. c #C79966",
"^. c #C79E70",
"/. c #CA8B6C",
"(. c #C6A566",
"). c #C4A279",
"_. c #CEA67A",
"`. c #D5A674",
"'. c #D2A47C",
"]. c #D8AC79",
"[. c #DBB27B",
"{. c #CCB06E",
"}. c #E4AE7E",
"|. c #AFC45D",
" X c #8BFF4A",
".X c #9FFF43",
"XX c #A2FF4C",
"oX c #A0FF53",
"OX c #8BF66F",
"+X c #A5FF60",
"@X c #CDC278",
"#X c #DCC378",
"$X c #E3C378",
"%X c #AFA083",
"&X c #C6A988",
"*X c #D9A982",
"=X c #DEB485",
"-X c #E4B382",
";X c #E8BC87",
":X c #EEC090",
">X c #F3CE8E",
/* pixels */
"                        . X XXj.%.m.o z                         ",
"                  # j.y.y.g.l.i.i.i.p.u.u.Y >X                  ",
"              v @.y.l.l.l.l.y.y.r.r.r.i.u.w.7.e.                ",
"            k e.y.t.j.g.W a s a p d p r.w.7.7.7.q.%             ",
"          f.@.f.g.h.s u K X.h.h.f.g.X.u G W 7.7.7.9.^           ",
"        y.e.g.g.i H b.c.$.q : : 8 q y.r.u.r.H 6.5.4.1.J         ",
"      / e.l.y.I K n.s.4 - - - - - - - L w.w.7.s 9.3.1...X       ",
"      e.f.g.i F c.c.: - - + ; - - % - - 0 7.9.2.r Q 1. .]       ",
"    +.l.l.p U v.c.e + - + + + + + - - - ; | 5.4.4.y  .>.] _     ",
"  . y.e.t.r x.c.c.; - - + & + O O + + & ; 8 4.4.1.2.R >.[ ,.    ",
"  l.i.#.d b.x.h.%.- - + + @ O $ O @ O * & : ,.1.>.>.` | [ [ 4.  ",
"  i.i.r.r h.j.h.k.- + + $ & , , , 5 1 1 5 w ( >.>.[ ] W [ ] ]   ",
"  i.u.0.E f.g.g.f.& + ; , 1 5 2 = m N f B.j 9 o.} ` ` R ] ] ]   ",
"oXu.p.p j.y.y.y.g.; - , 3 6 h V.!.(.}.;X-X(.g } ] ` _ _ ] ] ] . ",
"y.w.8.G y.i.i.r.r., ; , j V V V.P.~.`.-X].(.A.] ` _ Q Q Q ` ` . ",
"w.8.w.G w.r.r.u.u.4 4 9 N M V Z.Q.~.`.=X}.`.I.` ` ` W Q ] ` ` > ",
"8.7.7.P w.8.w.w.|.N 3 7 C B C n L.^.&X*X&XN.t ] { _ Q ` } ` ` $ ",
"6.7.7.H q.7.5.7.b S.T.f Z L.b D S j L.^.D K.R.` ` ` W Q ` ` ` . ",
"z.7.5.P 9.5.q.5.b B B B V.L.M l @ 6 P.=X%X%XD.` ~ Q W W ] ` ~   ",
"  5.5.2.5.5.4.2.<.Z.Y.P.V.P.T._.=X*X).:X;X:XJ._ ~ ~ W O.` ~ ~   ",
"  1.5.4.s 1.3.1.>.<.Q.Z.B P.!.`.*X].~.}.;X$XF.{ Q W ~ %.~ ~ `   ",
"  3.1.3.U  . .| | [ *.=.V.L.Y.`.-X'.'.*X[.#X) ` ~ W R ~ ~ ' 2.  ",
"    .. . .U ` ] _ ] ` { A.S.Y._.-X'.!.*X#X[.` ` ~ ~  X` ~ ~     ",
"    ] | | W [ Q _ ] ] { A.A.R.).^.T.A /.R.s.` ~ ! M.' ~ ~ 2.    ",
"      [ | [ ! ~ Q ` ] [ { H.G.R.I.I.L.P.W.{ ~ ~ >.>.' ~ ~       ",
"        [ ] [ ! Q ` ` ` { ~ A.G.H.(.{.@X;.~ Q XX' :.~ ~         ",
"        T ] ] ` ` ` ~ ~ ' ` ] ) H.G.{.D.~ Q OX' ' ~ ! $         ",
"          F ` ] ` ` ` ..W { Q ` { ' { d.+X' ` ~ ~ ' $           ",
"              _ ] ` ' ' ` 1.@.h.x.n.>.' ` ~ ~ ` W               ",
"                | ' ` ` _ ` ` ] ] ` ` ~ Q Q ~ 0.                ",
"                    1.` ' ~ ~ Q ` ' ~ ~ ~ H                     ",
"                            a.2.`                               "
};
