/* XPM */
static char *_0c21ff9f63944a9bee29c0e555cbae9h1ktV1zd7ELeQpau[] = {
/* columns rows colors chars-per-pixel */
"16 16 191 2 ",
"   c None",
".  c #000100",
"X  c #040003",
"o  c #030500",
"O  c #020004",
"+  c #000207",
"@  c #0C0F00",
"#  c #0C1706",
"$  c #0E1905",
"%  c #0F1B05",
"&  c #0D1708",
"*  c #121400",
"=  c #101F02",
"-  c #101C04",
";  c #101C06",
":  c #101B08",
">  c #131D0E",
",  c #241C07",
"<  c #112005",
"1  c #122104",
"2  c #122105",
"3  c #122204",
"4  c #122007",
"5  c #172806",
"6  c #142309",
"7  c #17250D",
"8  c #222F15",
"9  c #33392F",
"0  c #44381A",
"q  c #2A4D13",
"w  c #4C6000",
"e  c #456E00",
"r  c #556C00",
"t  c #534221",
"y  c #61462D",
"u  c #604F34",
"i  c #6B6F6C",
"p  c #976E3E",
"a  c #886D45",
"s  c #946E43",
"d  c #9D7A4C",
"f  c #A77F57",
"g  c #5B9100",
"h  c #5D9100",
"j  c #5FB000",
"k  c #64A100",
"l  c #67B301",
"z  c #6DB400",
"x  c #6BB900",
"c  c #6FB801",
"v  c #6FBB00",
"b  c #6EB803",
"n  c #6DBD00",
"m  c #6FBD00",
"M  c #6DBE00",
"N  c #6FBF00",
"B  c #71B600",
"V  c #72BB00",
"C  c #71BC00",
"Z  c #70BD00",
"A  c #72BC00",
"S  c #72BE00",
"D  c #73BE02",
"F  c #73B804",
"G  c #75BD0D",
"H  c #78BC0D",
"J  c #7BBD13",
"K  c #63B220",
"L  c #6AA63D",
"P  c #6CC300",
"I  c #6FCB00",
"U  c #70C100",
"Y  c #73C000",
"T  c #71C200",
"R  c #72C200",
"E  c #72C201",
"W  c #71C302",
"Q  c #74C101",
"!  c #76C100",
"~  c #73C600",
"^  c #72C402",
"/  c #77C500",
"(  c #74C600",
")  c #76C403",
"_  c #74C703",
"`  c #76C703",
"'  c #73C106",
"]  c #75C204",
"[  c #75C305",
"{  c #75C504",
"}  c #77C405",
"|  c #75C506",
" . c #78C200",
".. c #79C400",
"X. c #7CC600",
"o. c #74C800",
"O. c #77C800",
"+. c #76C900",
"@. c #75CB02",
"#. c #78CA00",
"$. c #78CB00",
"%. c #73D500",
"&. c #79D500",
"*. c #7AD700",
"=. c #7CD401",
"-. c #7CD502",
";. c #78FF16",
":. c #7AFF1F",
">. c #7AEB2B",
",. c #84BD01",
"<. c #83B31B",
"1. c #84BE30",
"2. c #80CA00",
"3. c #81DC01",
"4. c #83DD00",
"5. c #83E203",
"6. c #87E200",
"7. c #86E300",
"8. c #86EB02",
"9. c #84EE00",
"0. c #88ED00",
"q. c #90ED06",
"w. c #84F300",
"e. c #83F400",
"r. c #89F001",
"t. c #8AF100",
"y. c #8DF600",
"u. c #88FB00",
"i. c #8AFA00",
"p. c #8EFF00",
"a. c #8FFF03",
"s. c #8DFE07",
"d. c #8FFF10",
"f. c #81FF1A",
"g. c #86FF1F",
"h. c #8EFF19",
"j. c #8CFF1B",
"k. c #8DFF1C",
"l. c #93FF10",
"z. c #92FF13",
"x. c #94FF10",
"c. c #91FF1A",
"v. c #95FF19",
"b. c #97FF1A",
"n. c #95FF1D",
"m. c #9CFF1E",
"M. c #87C52A",
"N. c #85DA25",
"B. c #82FF23",
"V. c #86FF21",
"C. c #89FF21",
"Z. c #8EFF21",
"A. c #8FFF22",
"S. c #8EFF24",
"D. c #84FF2C",
"F. c #93FF20",
"G. c #90FF23",
"H. c #92FF23",
"J. c #93FF23",
"K. c #8AFE31",
"L. c #88FF35",
"P. c #92FF34",
"I. c #91FF3C",
"U. c #AC8053",
"Y. c #A98159",
"T. c #AD8759",
"R. c #B38C5D",
"E. c #AA9157",
"W. c #ABA05D",
"Q. c #ACA75F",
"!. c #B28B63",
"~. c #BB9462",
"^. c #BC9666",
"/. c #BA936B",
"(. c #B99D6B",
"). c #BD9E6D",
"_. c #C29B67",
"`. c #C69D6F",
"'. c #CB996D",
"]. c #C89773",
"[. c #C4A769",
"{. c #CCA26E",
"}. c #CEAC6E",
"|. c #C3A079",
" X c #C9A878",
".X c #D6AD7E",
"XX c #CEC278",
"oX c #E1A886",
"OX c #E5B781",
"+X c #E5B284",
"@X c #E6C487",
/* pixels */
"          O k.J.n.m.O           ",
"      . k.J.J.B.;.z.z.i.9       ",
"    ;.S.P.F K.>.C.c.w i.r.o     ",
"  @ A.r I.5 < < 2 6 s.r.e.7.i   ",
"  J.,.L.L < % $ ; 4 5 8.7.4.$.  ",
"X c.e D.q < & ; $ > 7 5.-.k +.  ",
"b.k.C.g.K % 0 a `.f (.M.+.M +.P ",
"x.h b.d.N.8 s U.~.oX}.1.W Z ( 2.",
"a.g a.a.p t Y.y - |.u J Q x P ..",
"9.w.y.r.d _.!.R.].OX/...Z l Z X.",
"  0.%.3.-.^.T.{.+X'.@X| F :.Z   ",
"  *.*.E W | E.). XoXXX} l Q Z   ",
"    #.B F ( | Q.W.[.G b F Z     ",
"    @.W #.z Q } <.H q.#.Z *     ",
"        E ( E D +.E Z Z         ",
"            M ..Z Q             "
};
