/* XPM */
static char *b4a92b6cb3774b20ec0aea653370d6a1bmF51JwSxZNoUCGH[] = {
/* columns rows colors chars-per-pixel */
"64 64 253 2 ",
"   c None",
".  c #030301",
"X  c #060A01",
"o  c #0B0B01",
"O  c #080607",
"+  c #0C1505",
"@  c #0F1A05",
"#  c #0E1609",
"$  c #0E1908",
"%  c #111D05",
"&  c #121D09",
"*  c #121403",
"=  c #0F0D09",
"-  c #122205",
";  c #14220A",
":  c #1A230D",
">  c #192B08",
",  c #1B2412",
"<  c #192814",
"1  c #16290C",
"2  c #272909",
"3  c #223603",
"4  c #272815",
"5  c #28361A",
"6  c #393819",
"7  c #342C11",
"8  c #333525",
"9  c #201F06",
"0  c #423819",
"q  c #503D25",
"w  c #3C5B00",
"e  c #2D4715",
"r  c #3E6404",
"t  c #38502F",
"y  c #455700",
"u  c #4C401C",
"i  c #4D6C01",
"p  c #456600",
"a  c #546E00",
"s  c #5A6A00",
"d  c #447503",
"f  c #527401",
"g  c #5D7B01",
"h  c #587802",
"j  c #47741B",
"k  c #4B4628",
"l  c #584727",
"z  c #5A5536",
"x  c #504F31",
"c  c #67542A",
"v  c #6B5537",
"b  c #765A38",
"n  c #6E4C2F",
"m  c #4B722E",
"M  c #6A5428",
"N  c #796742",
"B  c #706B51",
"V  c #5A4E49",
"C  c #8B5033",
"Z  c #84643C",
"A  c #94693B",
"S  c #8A6D4B",
"D  c #936E44",
"F  c #987549",
"G  c #9B7C5A",
"H  c #85734E",
"J  c #AA7C4D",
"K  c #A47A49",
"L  c #A57D53",
"P  c #A77C53",
"I  c #A36D5C",
"U  c #C27E65",
"Y  c #4C8401",
"T  c #5B8300",
"R  c #578700",
"E  c #5E9300",
"W  c #599801",
"Q  c #56931B",
"!  c #648B01",
"~  c #678601",
"^  c #639B00",
"/  c #699601",
"(  c #749302",
")  c #59AF02",
"_  c #64A400",
"`  c #65AA03",
"'  c #6AA800",
"]  c #6DB500",
"[  c #6EBB00",
"{  c #66B700",
"}  c #72BD01",
"|  c #76BA07",
" . c #76B00E",
".. c #578D2A",
"X. c #6D9637",
"o. c #64BA24",
"O. c #5FB825",
"+. c #6DC301",
"@. c #68C601",
"#. c #74C302",
"$. c #79C401",
"%. c #75CA01",
"&. c #7ACB01",
"*. c #75C20A",
"=. c #75D300",
"-. c #7CD301",
";. c #74DC00",
":. c #7DDB00",
">. c #76DB0A",
",. c #79C313",
"<. c #6DCF13",
"1. c #7DE300",
"2. c #7DEC00",
"3. c #7BFC06",
"4. c #7DFF13",
"5. c #7AFF1A",
"6. c #72EB07",
"7. c #76C832",
"8. c #7DFE29",
"9. c #7DF42C",
"0. c #748847",
"q. c #81BC17",
"w. c #8F9D35",
"e. c #86B825",
"r. c #92A43A",
"t. c #89AC33",
"y. c #84CD00",
"u. c #82DC01",
"i. c #87D800",
"p. c #8AD215",
"a. c #83E301",
"s. c #89E501",
"d. c #85EB00",
"f. c #8AEC01",
"g. c #87EA0C",
"h. c #95EC00",
"j. c #86F200",
"k. c #8BF401",
"l. c #84FD02",
"z. c #8CFC02",
"x. c #83FF0B",
"c. c #8DFF0B",
"v. c #88F10F",
"b. c #92F401",
"n. c #92FD04",
"m. c #93FF0D",
"M. c #9CFE06",
"N. c #85FF15",
"B. c #8CFF14",
"V. c #85FF1D",
"C. c #8CFF1D",
"Z. c #81F611",
"A. c #93FF14",
"S. c #92FF1B",
"D. c #99FF1A",
"F. c #9BFF14",
"G. c #A7FF03",
"H. c #83EB20",
"J. c #84FF24",
"K. c #8CFF23",
"L. c #84FF2B",
"P. c #8BFF2B",
"I. c #8FF528",
"U. c #92FF23",
"Y. c #9AFF28",
"T. c #85FF32",
"R. c #8AFE35",
"E. c #8DFF3A",
"W. c #88F535",
"Q. c #92FF3A",
"!. c #83E736",
"~. c #A3FF2D",
"^. c #90D022",
"/. c #9D8754",
"(. c #949446",
"). c #AC844E",
"_. c #A39D49",
"`. c #AC8455",
"'. c #AB845B",
"]. c #AD8B5A",
"[. c #A68656",
"{. c #B28A5D",
"}. c #B58959",
"|. c #A89659",
" X c #B5965B",
".X c #9AA346",
"XX c #9FB555",
"oX c #ACA75A",
"OX c #B1AA5D",
"+X c #A8AF50",
"@X c #96896B",
"#X c #AB8A65",
"$X c #B38A64",
"%X c #AC966A",
"&X c #BC9464",
"*X c #BB926B",
"=X c #BB9A6B",
"-X c #B79767",
";X c #BA9B74",
":X c #A48F77",
">X c #ACA764",
",X c #B3A56B",
"<X c #B8A567",
"1X c #BBB467",
"2X c #BCA273",
"3X c #AEAE73",
"4X c #94AB67",
"5X c #C2925C",
"6X c #CA9C6C",
"7X c #C49867",
"8X c #C79D75",
"9X c #C48B6C",
"0X c #CCA46B",
"qX c #D1A46D",
"wX c #C5B46B",
"eX c #C4A374",
"rX c #CDA272",
"tX c #C4A379",
"yX c #CAA57A",
"uX c #CCAC75",
"iX c #D4A97B",
"pX c #DCAD7B",
"aX c #D5A875",
"sX c #C8B975",
"dX c #D9B47B",
"fX c #E3B27E",
"gX c #A7D547",
"hX c #89FF42",
"jX c #94FF46",
"kX c #96FF49",
"lX c #9CFF58",
"zX c #93EA41",
"xX c #A3FF4C",
"cX c #A5FF53",
"vX c #99FF6C",
"bX c #B1FF78",
"nX c #ABFF66",
"mX c #85D443",
"MX c #CAC178",
"NX c #D7C378",
"BX c #E4C378",
"VX c #DAAB82",
"CX c #C8BB81",
"ZX c #DCB283",
"AX c #DDBD83",
"SX c #C5A893",
"DX c #E4B483",
"FX c #E8B988",
"GX c #E9B68C",
"HX c #B6FF82",
"JX c #E6C384",
"KX c #F0C187",
"LX c #CEE18C",
/* pixels */
"                                                      . o X o % - . X X .                                                       ",
"                                              . + 8.V.C.Y.U.S.S.B.D.D.Y.P.P.xXo .                                               ",
"                                        . T.5.N.B.C.K.U.D.U.S.U.S.A.C.D.D.D.S.D.B.V.- .                                         ",
"                                    . 8.4.B.N.K.K.U.K.U.U.U.U.S.U.S.A.S.D.D.S.A.B.c.F.x.Q O                                     ",
"                                - 3.N.N.S.U.U.U.U.U.K.U.S.U.S.C.S.C.D.A.D.D.A.S.B.m.c.n.l.z.B..                                 ",
"                            . 3 3.N.B.V.K.U.U.K.U.P.U.K.K.S.S.C.B.D.S.D.A.S.S.A.A.m.c.c.z.z.l.x.= HX                            ",
"                          X 5.x.B.4.4.K.U.P.K.K.K.K.P.G.' f s s s i  .i.S.c.c.B.A.m.z.l.z.l.l.n.v.V.X                           ",
"                        8.3.N.B.C.K.K.U.P.C.K.i.f f g T h f f f f f ~ / ~ h a u.B.m.z.n.z.z.z.k.k.f.;.O                         ",
"                    . 8.4.B.V.K.V.P.P.V.8.! g g f i ^ W ` <.<.5.Z.>.,.` R r f T ~ T x.j.z.z.z.z.z.j.k.a.Y                       ",
"                  O V.N.N.K.U.K.J.V.T.~.~ ! i | W 9.R.R.E.L.T.8.J.J.P.K.C.C.l.d p T T ! z.l.k.k.k.k.d.d.f.o                     ",
"                8 C.N.C.C.K.K.K.P.W ( ! | W Q.T.R.W.9.o.Q j Q r ..<.<.H.S.B.C.S.m.V.w p ! ] k.j.k.k.k.f.1.d.>.                  ",
"                T.V.V.V.K.U.J.J.s f W ` kXQ.R.mXm e > ; % ; % - % - - 4 m H.B.A.A.A.n.z._ E T =.f.k.d.d.1.1.=.x.                ",
"              E.3.N.C.C.K.K.E.s g ' ,.Q.R.!...e > > - - - - - - - - - - - > Q B.A.m.c.k.d.r g ~ k.f.f.1.a.:.;.=.X               ",
"            o B.N.K.K.P.K.C.i y Y kXQ.E.mXt > > - - - - - - % - - - - - - - > r v.c.z.c.k.k.k.w E } 1.a.2.u.:.:.;.X             ",
"          . 3.V.C.K.K.C.@.~ y Y jXhXE.W.m : > - - - % % - - % - - - - - - ; ; - r g.x.k.k.b.b.d.y ! a.a.1.a.:.:.%.x.            ",
"          J.B.B.K.U.P.L.g y d kXhXT.W.X.> - - - - % @ @ @ % - ; - - - - 1 ; ; - - d k.k.z.b.f.f.d.p ^ d.:.a.-.:.%.-.o           ",
"        o B.4.K.K.U.J.s y ^ jXQ.E.T.7.8 $ ; ; ; - % @ @ @ @ @ % @ - - - - - - ; - > *.k.b.k.f.f.f.1.T ^ a.-.u.:.&.%.=..         ",
"        B.B.K.C.C.P.y a d hXT.E.R.W.m ; $ ; @ ; % @ % @ @ @ @ + + % % % % - ; - - - e g.v.k.f.s.s.a.a.^ W a.u.:.%.&.%.l.        ",
"      + D.S.B.K.C.z.f ! jXT.E.E.R.!.5 & ; - - @ % @ @ @ % @ + + + + + @ % @ % ; - - > ,.k.d.f.s.s.s.-.h.E :.u.:.&.%.%.%.,       ",
"      4.S.S.C.C.4.a y d L.T.T.R.R.o.1 & - - - @ @ @ % + + + + $ + + + $ % % & & % - > j d.s.s.g.u.a.s.b.^ ' a.u.-.%.&.+.o       ",
"    . D.S.S.S.U.J.f R L.8.T.T.T.8.O.- - - - @ @ + + $ $ # # + # + + + + + % & % % & ; > Q h.s.u.u.:.u.s.a._ ` u.-.%.%.y.1.      ",
"    7.N.S.C.S.K.R y Q.L.8.L.8.L.8.O.; @ @ - - @ + + $ $ % * & & # # # # # + & & - ; ; > j g.u.s.u.u.-.-.&.W ' :.%.%.#.%.%..     ",
"    L.C.S.C.S.C.g / T.T.T.T.L.J.8.o.1 - - @ - $ + # & & & & & & % $ & + # # & : ; > , > e u.u.u.u.:.&.-.&.[ ] } -.%.#.%.%.Y     ",
"  * B.B.D.D.B.g h A.L.L.T.L.L.L.L.o.1 - @ @ @ $ # : , : , ; : 5 6 7 z q q 6 k 8 x k k x x ,.u.u.u.i.&.%.%.%._ ] -.%.%.%.%.a.    ",
"  J.D.A.S.D.C.~ s L.J.J.P.J.P.K.J.7.1 % % & & % & , , 4 , & 4 4 4 7 l Z l c z l N N c z k o.u.u.-.-.%.#.+.#.+.[ %.%.%.%.%.#..   ",
"  C.D.D.A.D.C.g p K.K.K.K.K.K.C.C.H.e @ % & - : : 9 k 2 6 l b v v F [.C *Xn Z eXtXyXH N k 0.i.>.&.%.+.#.} [ [ [ &.%.%.#.#.$.*   ",
"  D.A.A.A.A.+.p i V.C.K.K.V.C.V.C.V.e $ % - : , 2 0 l c c F L $X*X7X6X0XaX8XGXAXdXdXuXM c B =.=.%.%.%.+.[ #.[ { +.#.%.#.%.#. .  ",
"  A.A.A.c.B.T p _ C.C.C.S.C.C.S.C.J.t $ & % ; 4 0 n l D A K P `.&X7X6XqXaXpXDXDXBXfXaX X/.(.=.%.@.%.#.#.+.[ [ ] [ &.&.%.#.&.h.  ",
"  m.m.m.F.x.h w 2.C.C.C.C.C.C.C.B.zXt < & , & 5 0 b A F A J J }.}.7X7XqXaXpXfXDXfXdXaX X|.@X%.%.%.*.%.[ #.#.} } [ +.#.#.#.#.-.  ",
"X A.m.m.A.c.g w c.C.A.C.S.A.B.B.A.S.t ; & < 5 6 q Z A F J J J J }.}.7X6XqXaXpXDXpXdX0XOX|.3X*.%.%.+.%.[ [ } #.%.#.#.[ #.#.#.&.  ",
"o m.c.c.c.c.~ r A.B.B.A.B.B.m.A.A.m.Q & , 5 8 k l D A K K J }.5X}. X7X6X6XaXpXDXfXdX0X0X<X3X%.%.#.#.#.#.} [ } #.%.#.&.#.#.#.#.  ",
"@ c.z.c.c.l.~ d A.A.m.A.A.A.m.m.m.m.>.< < < 5 c F F L K K J J 5X5X7X6XrXiXiXpXDXfXdXaXyX<X;X*.#.%.#.%.} [ [ } [ =.#.} #.#.$.#.  ",
"- z.z.z.l.x.! i m.A.F.m.m.A.m.m.m.gX.Xz 4 4 6 b [.L L L L '.U ;X7X8XyX8XVXVXiXVXVXAXCX,X|.%X+.*.%.#.} } } ] } } =.#.#.#.} #.%.  ",
"X n.n.z.z.z.T d z.z.c.n.M.M.n.n.gXG F  XS 6 6 c [.`.L L L b q q 6 q N $X=XtXVX8X#XN 6 6 k N #.%.%.} #.} [ } [ ] =.#.#.#.} { &.  ",
"X l.z.z.z.l.T w z.z.z.z.z.z.c.z..XA `.).].S l b L P L G b b S B B x q q S ;X;X;Xv b :X>X<X.X*.%.#.#.} [ ] } { [ 2.+.[ } } #.$.  ",
"  j.k.z.z.l.T p n.l.z.n.z.z.z.b.w.A }.-X$X#Xb Z J #X'.'.#X:X:XG #X:XB S G ;XVX;X:Xz > c ,X .%.*.*.#.} } } [ [ { j.#.#.#.#.$.&.  ",
"  k.z.z.l.j.E f =.z.k.z.b.b.b.b..XA }.A A [.F D J {.$X'.'.G H 8 O o q S /.8XDXSXG < = #X/.,.#.*.#.#.[ [ ] ] [ [ :.#.} #.} $.f.  ",
"  z.k.k.j.j.j./ W k.k.k.k.k.k.k.+XD ).F =X X].L P '.$X#X$X'.S G V V SX;X#XyXKXaXSXSXSXtXCX| #.#.#.| } [ [ [ ) ;.+.#.} } } $.g   ",
"  2.k.k.z.k.k.^ i b.f.k.k.f.f.f.p.|.].K }.-X-X[.L $X$X-X;X;X*X*X7X8XVX8X2XrXFXiXGXZXDXJXCXq.%.[ #.} } [ ] [ ] 3.%.#.} #.} | o   ",
"  L.d.k.b.k.k.E h f.f.f.f.f.a.f.f.^.|.).).'.].F P }.{.$X=XeXyXVXZXVXVXVXtX6XDXDXFXKXJXJXCX,.*.[ [ #.| ] [ ] ] 5.#.$.#.} } }     ",
"    z.1.j.k.k.' E b.a.f.s.a.s.s.a.u.p.].{.5X}.).L '.{.&X=XrXaXuXDXfXpXaX6X7XaXDXFXKXBXBX1X,.%.%.} | ] } ] [ @.5.} } } } } s.    ",
"    ;.2.f.d.f.f._ i.u.u.a.u.u.u.u.u.-.p.=X X X[.K `.'.&X XrXqXpXiXDXVXaX7X7XqXGXFXFXBXBX3X,.%.*.} } ] ] [ ] 8.:.} } } } } d     ",
"    ) 1.d.d.d.a.' f a.u.:.:.-.:.-.-.%.%.e.%X].D [.[.].&X&X6X0XpXfXGXGX9X9X*XVXGXdXJXBXNX>X*.#.*.} } ] ] } d.8.#.#.$.} } y.      ",
"      d.:.1.a.a.:.^ :.&.-.-.-.&.%.%.%.%.%.@.| (.[.[.`.&X*X6XrXaXpXDXVX}.U $X8XVXuXJXBXCX4X*.*.%.#.| ] } #.hXc.[ } } } $.:.      ",
"      =.1.:.:.a.:.^ R &.%.+.%.%.+.#.%.%.%.%.%.(./.|.).-X=X=XeXaXpXDXZXrX7X&X9XVXdXNXNXMX.X@.%.*.[ [ ] ] [ jX#.} | $.} } o       ",
"        -.;.u.;.:.:._ _ [ %.%.#.#.+.*.+.*.*.+.r./.[.|.-X=X=XeXyXiXdXiXrX6XZXGXGXsXNXMX1X*.=.*.| | [ ] [ hX=.#.} } | } y.        ",
"        2.%.&.:.:.:.} ] -.} +.#.%.+.%.%.%.%.*. .|.|.|.-X<X<XeXeXyXtX2X=X7XU U VXuXMXMXo.@.@.*.#.} ] ' lXjX$.} #.} | } 3         ",
"          %.i.%.&.=.y._ _ &.[ #.#.+.*.%.#.&.*.>..X|.|.>X=X<X2X2XtX;X$XG C C C C |.wXgX .*.*.*.$.{ y.xXlX$.} $.} } &.i.          ",
"          @.&.&.&.-.-.%.' } $.} } } } #.#.%.&.&.*._.oXoXoX<X<X;X2X%X%X$XI 9X9X6XsX3X*.*.#.*.| { ] xXnXy.$.} } | } [ .           ",
"            [ &.&.%.&.&.&.} ' } } } } #.%.&.%.*.&.*..X|.oXoX>X,X,X>X$X|.F K  XwXsXXX*.+.} #.*.} :.vX} [ #.} } #.] M.            ",
"              %.%.%.%.-.%.%.[ } [ [ [ #.#.#.#.&.%.*.p._.|.oXoXoX>XoXoX5XuXsXsXMXMXo.} | | } $.nXbX#.y.} } } } $.a.              ",
"              D.%.%.&.&.y.y.$.] [ } [ } } *.*.%.#.#.*.} e._.oXoXOXOX1XwXwXsXMXMXt.$.} | $.| lXbX$.} } } | } ] [                 ",
"                r +.%.%.%.%.#.%.} } #.#.[ } } #.#.*.#.*.#.,.t._.+XOX<X1XwXMXMX.X| *.#.$.&.vXvX#.$.} } } } } }                   ",
"                  :.+.%.%.#.#.#.&.#.#.%.] } | } #.#.#.*.#.$.#.,.w.r._.+XOX+Xt.| *.*.| lXHXh.y.| $.} } } } ] G.                  ",
"                    1.+.#.&.%.%.%.%.%.#.%.=.;.] | [ #.#.$.*.#.*.+.*.%.| $.*.$.,.Y.cXbXF.&.&.} } } } } } } *                     ",
"                      k.#.%.#.#.#.#.#.#.+.%.=.;.2.1.[ | | %.*.#.*.| } &.| v.kXlXlX~.&.y.[ } $.} } } ] |                         ",
"                          :.#.@.#.%.#.#.+.#.$.#.2.3.x.x.3.4.4.V.J.P.hXkXkXkXY.u.%.#.} } [ #.} | #.#.&.                          ",
"                            #.&.#.%.#.#.} %.$.#.%.$.#.#.+.#.[ %.%.%.%.#.%.#.%.$.#.} } [ [ #.} y.] i                             ",
"                              3 #.#.#.#.#.#.#.$.} [ } #.+.} #.#.#.#.[ [ #.#.} #.} } } | } } [ b.                                ",
"                                  n.-.#.$.#.#.#.#.#.$.#.#.#.} #.} #.#.#.} #.} } } } } } ] y.3                                   ",
"                                      m.} #.} $.#.#.} [ } [ #.} } #.} #.} } #.} } } ] } r                                       ",
"                                            M.&.[ $.#.#.[ +.#.#.#.[ } } } #.#.] s.d                                             ",
"                                                    -.#.$.} %.} } #.[ #.#.i.                                                    ",
"                                                                                                                                "
};
